<svg width="29" height="29" viewBox="0 0 29 29" fill="none" xmlns="http://www.w3.org/2000/svg">
<g id="Instagram" clip-path="url(#clip0_11_165)">
<path id="Icon" d="M21.1458 7.85416H21.1579M8.45832 2.41666H20.5417C23.8784 2.41666 26.5833 5.1216 26.5833 8.45832V20.5417C26.5833 23.8784 23.8784 26.5833 20.5417 26.5833H8.45832C5.1216 26.5833 2.41666 23.8784 2.41666 20.5417V8.45832C2.41666 5.1216 5.1216 2.41666 8.45832 2.41666ZM19.3333 13.7387C19.4824 14.7444 19.3107 15.7714 18.8424 16.6738C18.3742 17.5762 17.6334 18.3079 16.7253 18.765C15.8172 19.2221 14.7881 19.3812 13.7844 19.2197C12.7807 19.0581 11.8535 18.5843 11.1346 17.8654C10.4157 17.1465 9.94183 16.2193 9.78032 15.2156C9.61881 14.2119 9.7779 13.1828 10.235 12.2747C10.692 11.3666 11.4238 10.6258 12.3262 10.1575C13.2286 9.6893 14.2556 9.51753 15.2612 9.66666C16.287 9.81877 17.2367 10.2968 17.97 11.03C18.7032 11.7633 19.1812 12.713 19.3333 13.7387Z" stroke="white" stroke-width="4" stroke-linecap="round" stroke-linejoin="round"/>
</g>
<defs>
<clipPath id="clip0_11_165">
<rect width="29" height="29" fill="white"/>
</clipPath>
</defs>
</svg>
