<svg width="29" height="29" viewBox="0 0 29 29" fill="none" xmlns="http://www.w3.org/2000/svg">
<g id="Twitter" clip-path="url(#clip0_11_200)">
<path id="Icon" d="M27.7917 3.625C26.6346 4.44121 25.3534 5.06547 23.9975 5.47375C23.2698 4.637 22.3026 4.04392 21.2268 3.77475C20.1511 3.50557 19.0186 3.57328 17.9825 3.96872C16.9465 4.36416 16.0569 5.06824 15.434 5.98575C14.8112 6.90325 14.4851 7.98991 14.5 9.09875V10.3071C12.3765 10.3621 10.2724 9.8912 8.37498 8.93617C6.47757 7.98114 4.84581 6.57169 3.62501 4.83334C3.62501 4.83334 -1.20832 15.7083 9.66668 20.5417C7.17815 22.2309 4.21366 23.0779 1.20834 22.9583C12.0833 29 25.375 22.9583 25.375 9.0625C25.3739 8.72593 25.3415 8.39018 25.2783 8.05959C26.5116 6.84339 27.3818 5.30787 27.7917 3.625Z" stroke="white" stroke-width="4" stroke-linecap="round" stroke-linejoin="round"/>
</g>
<defs>
<clipPath id="clip0_11_200">
<rect width="29" height="29" fill="white"/>
</clipPath>
</defs>
</svg>
