<svg width="220" height="76" viewBox="0 0 220 76" fill="none" xmlns="http://www.w3.org/2000/svg">
<g id="Vector">
<path d="M0 0H220V76H0V0Z" fill="#E8E6E6"/>
<path d="M34.2477 46V32.35H39.4277L41.9652 43.69H42.5952L45.1327 32.35H50.3127V46H47.5827V34.765H47.1277L44.6427 46H39.7777L37.2927 34.765H36.8377V46H34.2477Z" fill="#030303"/>
<path d="M58.0113 46.245C56.5647 46.245 55.3572 45.9592 54.3888 45.3875C53.4322 44.8042 52.7147 43.9817 52.2363 42.92C51.7697 41.8583 51.5363 40.61 51.5363 39.175C51.5363 37.7283 51.7697 36.48 52.2363 35.43C52.7147 34.3683 53.4322 33.5517 54.3888 32.98C55.3572 32.3967 56.5647 32.105 58.0113 32.105C59.4697 32.105 60.6772 32.3967 61.6338 32.98C62.5905 33.5517 63.3022 34.3683 63.7688 35.43C64.2472 36.48 64.4863 37.7283 64.4863 39.175C64.4863 40.61 64.2472 41.8583 63.7688 42.92C63.3022 43.9817 62.5905 44.8042 61.6338 45.3875C60.6772 45.9592 59.4697 46.245 58.0113 46.245ZM58.0113 44.04C59.1897 44.04 60.053 43.62 60.6013 42.78C61.1613 41.9283 61.4413 40.7267 61.4413 39.175C61.4413 37.6117 61.1613 36.41 60.6013 35.57C60.053 34.73 59.1897 34.31 58.0113 34.31C56.833 34.31 55.9638 34.73 55.4038 35.57C54.8555 36.41 54.5813 37.6117 54.5813 39.175C54.5813 40.7267 54.8555 41.9283 55.4038 42.78C55.9638 43.62 56.833 44.04 58.0113 44.04Z" fill="#030303"/>
<path d="M65.7182 46V32.35H71.5107C72.6773 32.35 73.6223 32.5192 74.3457 32.8575C75.0807 33.1842 75.6173 33.6392 75.9557 34.2225C76.3057 34.7942 76.4807 35.4592 76.4807 36.2175C76.4807 37.0808 76.2532 37.8275 75.7982 38.4575C75.3432 39.0875 74.6723 39.5367 73.7857 39.805L76.8482 45.895V46H73.7332L70.9507 40.225H68.6232V46H65.7182ZM68.6232 38.09H71.0907C71.849 38.09 72.4382 37.9617 72.8582 37.705C73.2898 37.4483 73.5057 36.9875 73.5057 36.3225C73.5057 35.6458 73.2898 35.185 72.8582 34.94C72.4265 34.6833 71.8373 34.555 71.0907 34.555H68.6232V38.09Z" fill="#030303"/>
<path d="M77.8645 46V32.35H87.1745V34.66H80.7695V37.67H85.7045V39.805H80.7695V43.69H87.2795V46H77.8645Z" fill="#030303"/>
<path d="M91.1645 46V45.895L95.277 32.35H99.8795L104.01 45.895V46H101L97.692 34.625H97.272L93.9295 46H91.1645ZM94.577 42.5875L95.1895 40.3825H99.7745L100.387 42.5875H94.577Z" fill="#030303"/>
<path d="M104.85 46V32.35H110.205C111.908 32.35 113.139 32.6592 113.897 33.2775C114.655 33.8958 115.035 34.73 115.035 35.78C115.035 36.4567 114.871 37.005 114.545 37.425C114.218 37.845 113.722 38.1542 113.057 38.3525V38.7725C113.944 38.9708 114.615 39.3208 115.07 39.8225C115.536 40.3242 115.77 41.0533 115.77 42.01C115.77 43.2117 115.373 44.18 114.58 44.915C113.798 45.6383 112.503 46 110.695 46H104.85ZM107.65 43.9H110.31C111.196 43.9 111.838 43.725 112.235 43.375C112.631 43.0133 112.83 42.5233 112.83 41.905C112.83 41.2167 112.608 40.715 112.165 40.4C111.721 40.0733 111.103 39.91 110.31 39.91H107.65V43.9ZM107.65 37.845H109.995C110.66 37.845 111.185 37.7108 111.57 37.4425C111.966 37.1625 112.165 36.7308 112.165 36.1475C112.165 35.0158 111.441 34.45 109.995 34.45H107.65V37.845Z" fill="#030303"/>
<path d="M122.666 46.245C121.219 46.245 120.012 45.9592 119.043 45.3875C118.087 44.8042 117.369 43.9817 116.891 42.92C116.424 41.8583 116.191 40.61 116.191 39.175C116.191 37.7283 116.424 36.48 116.891 35.43C117.369 34.3683 118.087 33.5517 119.043 32.98C120.012 32.3967 121.219 32.105 122.666 32.105C124.124 32.105 125.332 32.3967 126.288 32.98C127.245 33.5517 127.957 34.3683 128.423 35.43C128.902 36.48 129.141 37.7283 129.141 39.175C129.141 40.61 128.902 41.8583 128.423 42.92C127.957 43.9817 127.245 44.8042 126.288 45.3875C125.332 45.9592 124.124 46.245 122.666 46.245ZM122.666 44.04C123.844 44.04 124.708 43.62 125.256 42.78C125.816 41.9283 126.096 40.7267 126.096 39.175C126.096 37.6117 125.816 36.41 125.256 35.57C124.708 34.73 123.844 34.31 122.666 34.31C121.488 34.31 120.618 34.73 120.058 35.57C119.51 36.41 119.236 37.6117 119.236 39.175C119.236 40.7267 119.51 41.9283 120.058 42.78C120.618 43.62 121.488 44.04 122.666 44.04Z" fill="#030303"/>
<path d="M136.043 46.2625C134.071 46.2625 132.601 45.755 131.633 44.74C130.676 43.7133 130.198 42.2492 130.198 40.3475V32.35H133.173V40.26C133.173 41.38 133.383 42.255 133.803 42.885C134.234 43.515 134.993 43.83 136.078 43.83C137.174 43.83 137.933 43.515 138.353 42.885C138.773 42.255 138.983 41.38 138.983 40.26V32.35H141.888V40.3475C141.888 42.2492 141.409 43.7133 140.453 44.74C139.496 45.755 138.026 46.2625 136.043 46.2625Z" fill="#030303"/>
<path d="M146.987 46V34.66H142.945V32.35H153.97V34.66H149.927V46H146.987Z" fill="#030303"/>
<path d="M158.773 46V32.35H163.953L166.49 43.69H167.12L169.658 32.35H174.838V46H172.108V34.765H171.653L169.168 46H164.303L161.818 34.765H161.363V46H158.773Z" fill="#030303"/>
<path d="M176.866 46V32.35H186.176V34.66H179.771V37.67H184.706V39.805H179.771V43.69H186.281V46H176.866Z" fill="#030303"/>
</g>
</svg>
