<svg width="29" height="29" viewBox="0 0 29 29" fill="none" xmlns="http://www.w3.org/2000/svg">
<g id="Youtube" clip-path="url(#clip0_11_184)">
<g id="Icon">
<path d="M27.2358 7.75751C27.0923 7.18405 26.8 6.65862 26.3884 6.23429C25.9768 5.80997 25.4605 5.50178 24.8917 5.34084C22.8133 4.83334 14.5 4.83334 14.5 4.83334C14.5 4.83334 6.18667 4.83334 4.10833 5.38918C3.53951 5.55011 3.02322 5.8583 2.61163 6.28263C2.20003 6.70695 1.9077 7.23238 1.76417 7.80584C1.3838 9.91506 1.19774 12.0547 1.20833 14.1979C1.19477 16.3573 1.38084 18.5132 1.76417 20.6383C1.92241 21.194 2.22129 21.6994 2.63192 22.1058C3.04256 22.5122 3.55107 22.8059 4.10833 22.9583C6.18667 23.5142 14.5 23.5142 14.5 23.5142C14.5 23.5142 22.8133 23.5142 24.8917 22.9583C25.4605 22.7974 25.9768 22.4892 26.3884 22.0649C26.8 21.6406 27.0923 21.1151 27.2358 20.5417C27.6133 18.4483 27.7993 16.325 27.7917 14.1979C27.8052 12.0386 27.6192 9.8826 27.2358 7.75751Z" stroke="white" stroke-width="4" stroke-linecap="round" stroke-linejoin="round"/>
<path d="M11.7812 18.1492L18.7292 14.1979L11.7812 10.2467V18.1492Z" stroke="white" stroke-width="4" stroke-linecap="round" stroke-linejoin="round"/>
</g>
</g>
<defs>
<clipPath id="clip0_11_184">
<rect width="29" height="29" fill="white"/>
</clipPath>
</defs>
</svg>
